<?xml version="1.0" encoding="UTF-8" standalone="no"?>
<!-- Created with Inkscape (http://www.inkscape.org/) -->

<svg
   width="500"
   height="500"
   viewBox="0 0 132.29166 132.29167"
   version="1.1"
   id="svg5"
   inkscape:version="1.1 (c68e22c387, 2021-05-23)"
   sodipodi:docname="art-draw-maestro.svg"
   xmlns:inkscape="http://www.inkscape.org/namespaces/inkscape"
   xmlns:sodipodi="http://sodipodi.sourceforge.net/DTD/sodipodi-0.dtd"
   xmlns="http://www.w3.org/2000/svg"
   xmlns:svg="http://www.w3.org/2000/svg">
  <sodipodi:namedview
     id="namedview7"
     pagecolor="#505050"
     bordercolor="#eeeeee"
     borderopacity="1" />
  <defs
     id="defs2" />
  <g
     inkscape:groupmode="layer"
     id="layer2"
     inkscape:label="Main Layer"
     style="display:inline">
    <rect
       style="fill:#ffffff;fill-opacity:1;stroke:none;stroke-width:0.594733;stroke-linecap:round;stroke-miterlimit:4;stroke-dasharray:none;stroke-opacity:1;paint-order:markers stroke fill"
       id="rect20924"
       width="132.29167"
       height="132.29167"
       x="0"
       y="0" />
    <path
       id="path1227"
       style="display:inline;fill:#000000;fill-opacity:1;stroke:none;stroke-width:0.264583px;stroke-linecap:butt;stroke-linejoin:miter;stroke-opacity:1"
       d="M 86.378104,45.457226 61.835416,66.832148 c 0,0 -8.268825,3.36826 -13.574882,3.506761 -5.30606,0.138499 -20.123957,-5.866423 -24.754043,-7.205244 -4.630085,-1.338823 -8.195856,0.76051 -11.533147,3.259233 -4.7845617,3.582334 -5.6219218,14.832197 -5.2983841,16.673401 0.7307134,4.158371 9.7905461,9.689433 11.1605581,11.218436 1.150263,1.283751 4.292513,7.929565 4.647262,13.934545 0.213674,3.61694 -2.157862,7.53631 -2.564185,9.34052 -0.46413,2.0609 -0.160197,6.33553 -0.160197,6.33553 h 26.297104 c 0.702876,-2.15434 0.09752,-5.22853 1.623205,-8.33087 1.956766,-3.97891 6.470356,-8.17562 6.470356,-8.17562 L 46.375894,87.02368 h 9.147246 c 2.445128,4.881665 4.624673,9.649724 6.441466,14.26321 0,0 4.579954,10.42038 4.463966,11.21239 0,0 -8.160295,3.42395 -9.661094,4.56914 -1.323732,1.01008 -5.000747,5.37136 -5.677717,6.77143 l 17.250684,0.0555 c 0,0 -0.994105,-7.06007 -0.698947,-7.63708 0.2247,-0.43927 4.307054,-2.14297 4.934347,-3.38292 0.627295,-1.23994 -4.765082,-11.62048 -4.765082,-11.62048 L 80.754674,101.11481 101.96837,90.019361 96.129963,77.598415 76.201981,86.5219 c 0,0 -9.411126,0.297103 -11.691276,0.208775 -2.28015,-0.08833 -0.920358,-1.828829 -0.920358,-1.828829 L 94.482519,57.290094 Z"
       sodipodi:nodetypes="ccsssssssccscccccsccsscccccsccc" />
    <path
       style="fill:none;stroke:#000000;stroke-width:0.529167;stroke-linecap:butt;stroke-linejoin:miter;stroke-miterlimit:4;stroke-dasharray:none;stroke-opacity:1"
       d="m 101.08242,88.997654 4.92094,-3.312885 -5.58632,-10.128816 -4.398781,2.882541 z"
       id="path2313"
       sodipodi:nodetypes="ccccc" />
    <path
       style="fill:#000000;fill-opacity:1;stroke:none;stroke-width:0.30557px;stroke-linecap:butt;stroke-linejoin:miter;stroke-opacity:1"
       d="m 101.11265,76.699769 3.72885,7.391249 c 0.30558,0.605716 4.1438,-2.350647 7.84321,-1.854325 3.67796,0.493446 8.66176,1.086428 8.66176,1.086428 0,0 1.03709,0.286218 0.91113,-0.671717 -0.12596,-0.957935 -4.5926,-1.360678 -4.5926,-1.360678 0,0 -0.58558,-0.25114 -0.62003,-0.480817 -0.0385,-0.256242 0.62669,-0.430486 0.62669,-0.430486 l 5.89216,-1.157771 c 0,0 1.02638,-0.185291 1.02154,-0.871829 -0.005,-0.686536 -1.46577,-0.705207 -1.46577,-0.705207 l -5.63409,0.719092 c 0,0 -1.08778,0.213699 -1.0841,-0.477688 0.002,-0.362242 0.77793,-0.758842 0.77793,-0.758842 l 8.02682,-2.063421 c 0,0 0.67652,-0.202107 0.40983,-0.874924 -0.2667,-0.672813 -0.82241,-0.789092 -1.22615,-0.70709 -0.40373,0.082 -7.36001,1.7832 -8.3452,2.085355 -0.50774,0.155724 -1.09177,0.423276 -1.312,-0.152151 -0.13167,-0.344051 0.28525,-0.771813 0.62902,-0.885048 1.80296,-0.593883 6.89237,-2.914731 6.89237,-2.914731 0,0 0.60081,-0.489206 0.17153,-1.301008 -0.42927,-0.811806 -1.96769,0.03696 -1.96769,0.03696 l -7.05839,3.244851 c 0,0 -1.96487,0.623068 -2.4624,-0.263039 -0.4975,-0.88611 -0.39246,-1.644696 -0.27078,-1.895899 0.38686,-0.798623 1.23862,-2.246283 1.23862,-2.246283 0,0 0.54051,-0.681392 0.0829,-1.334215 -0.45755,-0.652826 -1.49438,-0.03014 -1.49438,-0.03014 0,0 -1.14307,2.017916 -2.91756,3.48337 -1.57801,1.303202 -3.78776,2.047296 -4.11341,2.41481 -0.69185,0.780784 -2.34981,2.975194 -2.34981,2.975194 z"
       id="path2671"
       sodipodi:nodetypes="csscscscccccsccssssscsccsscscsscc" />
    <path
       style="fill:none;stroke:#000000;stroke-width:0.529167;stroke-linecap:butt;stroke-linejoin:miter;stroke-miterlimit:4;stroke-dasharray:none;stroke-opacity:1"
       d="m 86.522831,47.727031 4.173191,-4.685784 9.390578,8.596526 -7.423581,5.238224 z"
       id="path9297" />
    <path
       style="fill:#000000;fill-opacity:1;stroke:#000000;stroke-width:0.264583px;stroke-linecap:butt;stroke-linejoin:miter;stroke-opacity:1"
       d="m 103.7336,30.104966 16.51897,-20.7528694 0.61331,-0.652831 c 0,0 0.29371,-0.2896275 0.52118,-0.1185468 0.22747,0.1710809 -0.10835,0.5416277 -0.10835,0.5416277 l -0.74133,1.0617865 -15.35569,20.563477 z"
       id="path9412" />
    <path
       style="fill:#000000;fill-opacity:1;stroke:none;stroke-width:0.264583px;stroke-linecap:butt;stroke-linejoin:miter;stroke-opacity:1"
       d="m 92.051876,44.428489 c 0,0 1.788297,-8.290567 3.00581,-9.746244 1.217515,-1.455676 6.009164,-7.660741 7.687164,-7.333051 1.67801,0.327689 2.74515,1.649665 2.74515,1.649665 0,0 0.42887,0.335929 1.30066,-0.08677 0.8718,-0.422696 1.73175,0.01154 1.69698,0.915562 -0.0149,0.38808 -0.84056,1.070412 -0.92171,1.718983 -0.0407,0.325093 0.66622,-0.173097 0.81615,0.438947 0.1366,0.55758 -0.3839,1.069631 -0.4332,1.322536 0,0 0.44641,-0.342689 0.66389,0.459594 0.21747,0.802282 -0.6003,2.025143 -0.6003,2.025143 0,0 0.47002,0.135275 0.62819,0.732265 0.0975,0.362659 -0.8562,0.791884 -0.58039,1.353382 0,0 0.45884,0.105479 0.39021,0.718515 -0.0686,0.613036 -3.7333,4.559269 -5.55376,5.146415 -1.9023,1.660828 -5.4855,5.499724 -5.4855,5.499724 z"
       id="path9414"
       sodipodi:nodetypes="csscscsscsccczccc" />
    <path
       style="fill:none;stroke:#000000;stroke-width:0.529167;stroke-linecap:butt;stroke-linejoin:miter;stroke-miterlimit:4;stroke-dasharray:none;stroke-opacity:1"
       d="m 15.093239,65.750206 0.749255,-5.698939 18.785463,1.342895 2.116912,2.097005 4.20109,-2.698302 2.552095,3.007707 c -0.891688,1.913483 -2.27454,4.130932 -3.85746,5.713898 z"
       id="path13158"
       sodipodi:nodetypes="cccccccc" />
    <path
       id="path14383"
       style="display:inline;fill:#000000;fill-opacity:1;stroke:none;stroke-width:0.772377;stroke-linecap:round;stroke-miterlimit:4;stroke-dasharray:none;stroke-opacity:1;paint-order:markers stroke fill"
       d="m 22.718088,28.530963 c -6.485281,1.107162 -10.25478,4.327107 -12.090012,10.566149 -0.6380707,0.423472 -1.0164187,1.10346 -1.0169917,1.827794 6.56e-4,0.201201 0.03055,0.401416 0.08888,0.595313 -0.430364,0.418488 -0.670385,0.972867 -0.670761,1.54926 3.4e-5,0.685794 0.338933,1.334304 0.920875,1.762167 -0.56072,0.428141 -0.885358,1.063969 -0.885733,1.734777 6.1e-4,0.999278 0.715245,1.879006 1.7559657,2.161625 0.02479,0.07342 0.0496,0.146656 0.07545,0.219625 -0.354137,0.401632 -0.547541,0.903204 -0.54777,1.420585 7.99e-4,1.226115 1.065217,2.226948 2.396236,2.253091 -0.115277,0.265803 -0.174555,0.549388 -0.174667,0.83561 -1.2e-4,1.245452 1.096112,2.255152 2.44843,2.255158 0.183294,-1.11e-4 0.365995,-0.01918 0.544669,-0.05684 0.544271,0.447783 1.12178,0.858673 1.731679,1.226282 l -0.106455,3.112471 16.444992,1.133264 2.204516,-2.276346 c 0,0 1.031301,-0.653219 5.633249,-0.508497 0.78469,0.02469 1.022614,-3.945578 1.058849,-4.596101 0.01156,-0.207658 -0.89812,-0.621387 -0.877983,-0.841809 0.02014,-0.220421 0.853887,-0.493921 0.850077,-0.937929 -0.0019,-0.200562 -0.372409,-0.727548 -0.581295,-1.064002 -0.355028,-1.071026 -0.385769,-2.092567 -0.28829,-3.191469 0.120134,-0.160647 2.51083,-0.496176 2.510828,-0.496176 0.637394,-0.60158 -1.651505,-3.446081 -2.376075,-4.080724 -0.724564,-0.634648 -2.348346,-6.177708 -4.298556,-8.152362 -2.58737,-2.619801 -5.401709,-4.992104 -7.191375,-5.628633 -1.437119,-0.558876 -4.058384,-0.795484 -7.558732,-0.822283 z m 12.727596,10.361513 c 1.002107,-0.23579 2.051343,1.138879 2.44998,2.617928 0.464599,1.724122 -0.07309,3.368183 -1.200962,3.672128 -0.832437,0.223716 -1.789423,-0.347083 -2.418972,-1.442807 -0.127656,0.101832 -0.260059,0.236455 -0.391191,0.41548 -0.652592,0.890932 -1.866554,13.64361 -1.866554,13.64361 -0.195098,-0.08434 -0.38508,-0.08215 -0.635619,0.07648 0,-3e-6 0.797375,-10.330913 1.126546,-11.676808 0.314941,-1.287714 0.828738,-3.003384 1.307414,-3.570325 -0.0017,-0.0057 -0.0035,-0.01136 -0.0052,-0.01704 -0.464598,-1.724121 0.07309,-3.368182 1.20096,-3.672128 0.139747,-0.03761 0.288832,-0.01245 0.433564,-0.04651 z"
       sodipodi:nodetypes="ccccccccccccccccccsssccccssccscccscsscccss" />
  </g>
</svg>
